<svg width="129" height="94" viewBox="0 0 129 94" fill="none" xmlns="http://www.w3.org/2000/svg">
	<path d="M0.75 4C0.75 2.20508 2.20507 0.75 4 0.75H125C126.795 0.75 128.25 2.20508 128.25 4V31.2146H0.75V4Z" fill="#2FC18C" stroke="#41197F" stroke-width="1.5" />
	<path d="M28.0455 13.6992H119.373V18.2656H28.0455V13.6992Z" fill="#41197F" />
	<path fill-rule="evenodd" clip-rule="evenodd" d="M15.7352 19.3102C17.7096 19.3102 19.3102 17.7096 19.3102 15.7352C19.3102 13.7609 17.7096 12.1603 15.7352 12.1603C13.7609 12.1603 12.1603 13.7609 12.1603 15.7352C12.1603 17.7096 13.7609 19.3102 15.7352 19.3102ZM15.7352 21.1961C18.7512 21.1961 21.1961 18.7512 21.1961 15.7352C21.1961 12.7193 18.7512 10.2744 15.7352 10.2744C12.7193 10.2744 10.2744 12.7193 10.2744 15.7352C10.2744 18.7512 12.7193 21.1961 15.7352 21.1961Z" fill="#41197F" />
	<rect x="0.75" y="31.573" width="127.5" height="30.4646" fill="#2FC18C" stroke="#41197F" stroke-width="1.5" />
	<rect x="28.0455" y="44.5222" width="91.3274" height="4.56637" fill="#41197F" />
	<path fill-rule="evenodd" clip-rule="evenodd" d="M15.7352 50.1332C17.7096 50.1332 19.3102 48.5326 19.3102 46.5582C19.3102 44.5839 17.7096 42.9833 15.7352 42.9833C13.7609 42.9833 12.1603 44.5839 12.1603 46.5582C12.1603 48.5326 13.7609 50.1332 15.7352 50.1332ZM15.7352 52.0191C18.7512 52.0191 21.1961 49.5742 21.1961 46.5582C21.1961 43.5423 18.7512 41.0974 15.7352 41.0974C12.7193 41.0974 10.2744 43.5423 10.2744 46.5582C10.2744 49.5742 12.7193 52.0191 15.7352 52.0191Z" fill="#41197F" />
	<path d="M0.75 62.396H128.25V89.6106C128.25 91.4055 126.795 92.8606 125 92.8606H4C2.20508 92.8606 0.75 91.4055 0.75 89.6106V62.396Z" fill="#2FC18C" stroke="#41197F" stroke-width="1.5" />
	<rect x="28.0455" y="75.345" width="91.3274" height="4.56637" fill="#41197F" />
	<path fill-rule="evenodd" clip-rule="evenodd" d="M15.7352 80.9559C17.7096 80.9559 19.3102 79.3554 19.3102 77.381C19.3102 75.4066 17.7096 73.8061 15.7352 73.8061C13.7609 73.8061 12.1603 75.4066 12.1603 77.381C12.1603 79.3554 13.7609 80.9559 15.7352 80.9559ZM15.7352 82.8418C18.7512 82.8418 21.1961 80.3969 21.1961 77.381C21.1961 74.3651 18.7512 71.9202 15.7352 71.9202C12.7193 71.9202 10.2744 74.3651 10.2744 77.381C10.2744 80.3969 12.7193 82.8418 15.7352 82.8418Z" fill="#41197F" />
</svg>
