<svg width="150" height="135" viewBox="0 0 150 135" fill="none" xmlns="http://www.w3.org/2000/svg" alt="Carreira">
  <circle cx="70.5" cy="68.5" r="54.5" fill="#41197F" />
  <circle cx="70" cy="68" r="47" fill="#2FC18C" />
  <path d="M70.366 25.5C69.9811 26.1667 69.0189 26.1667 68.634 25.5L65.6029 20.25C65.218 19.5833 65.6991 18.75 66.4689 18.75L72.5311 18.75C73.3009 18.75 73.782 19.5833 73.3971 20.25L70.366 25.5Z" fill="#41197F" />
  <path d="M70.366 109.5C69.9811 108.833 69.0189 108.833 68.634 109.5L65.6029 114.75C65.218 115.417 65.6991 116.25 66.4689 116.25L72.5311 116.25C73.3009 116.25 73.782 115.417 73.3971 114.75L70.366 109.5Z" fill="#41197F" />
  <path d="M27.5 66.634C28.1667 67.0189 28.1667 67.9811 27.5 68.366L22.25 71.3971C21.5833 71.782 20.75 71.3009 20.75 70.5311L20.75 64.4689C20.75 63.6991 21.5833 63.218 22.25 63.6029L27.5 66.634Z" fill="#41197F" />
  <path d="M111.5 66.634C110.833 67.0189 110.833 67.9811 111.5 68.366L116.75 71.3971C117.417 71.782 118.25 71.3009 118.25 70.5311L118.25 64.4689C118.25 63.6991 117.417 63.218 116.75 63.6029L111.5 66.634Z" fill="#41197F" />
  <path d="M84.1137 44.6948C86.2642 43.6948 88.6699 45.4677 88.3516 47.8178L84.4123 76.8985C84.2751 77.9115 83.6315 78.785 82.7045 79.216L56.0946 91.5902C53.9442 92.5902 51.5385 90.8173 51.8568 88.4672L55.796 59.3866C55.9333 58.3735 56.5769 57.5001 57.5039 57.069L84.1137 44.6948Z" fill="#036B52" />
  <circle cx="70.5" cy="67.5" r="5.5" fill="white" />
</svg>
