<svg width="118" height="120" viewBox="0 0 118 120" fill="none" xmlns="http://www.w3.org/2000/svg">
	<path fill-rule="evenodd" clip-rule="evenodd" d="M11.7717 108.51L44.3702 76.3638L45.6418 77.6533L13.0433 109.799L11.7717 108.51Z" fill="#41197F" />
	<path fill-rule="evenodd" clip-rule="evenodd" d="M73.7994 108.51L44.3701 76.3638L45.7059 75.1409L75.1352 107.287L73.7994 108.51Z" fill="#41197F" />
	<path fill-rule="evenodd" clip-rule="evenodd" d="M76.7005 44.0738L44.3702 76.3637L43.0905 75.0823L75.4207 42.7924L76.7005 44.0738Z" fill="#41197F" />
	<path fill-rule="evenodd" clip-rule="evenodd" d="M44.3702 12.072L14.941 44.2178L13.6052 42.9949L43.0345 10.8491L44.3702 12.072Z" fill="#41197F" />
	<path fill-rule="evenodd" clip-rule="evenodd" d="M76.5159 44.2181L44.3702 12.0723L45.6508 10.7917L77.7965 42.9375L76.5159 44.2181Z" fill="#41197F" />
	<path fill-rule="evenodd" clip-rule="evenodd" d="M105.945 76.3635L76.5159 44.2178L77.8517 42.9949L107.281 75.1406L105.945 76.3635Z" fill="#41197F" />
	<path d="M84.7553 108.671C84.7553 114.928 79.6832 120 73.4266 120C67.1699 120 62.0979 114.928 62.0979 108.671C62.0979 102.415 67.1699 97.3428 73.4266 97.3428C79.6832 97.3428 84.7553 102.415 84.7553 108.671Z" fill="#41197F" />
	<path d="M22.6574 108.671C22.6574 114.928 17.5853 120 11.3287 120C5.07203 120 0 114.928 0 108.671C0 102.415 5.07203 97.3428 11.3287 97.3428C17.5853 97.3428 22.6574 102.415 22.6574 108.671Z" fill="#2FC18C" />
	<path fill-rule="evenodd" clip-rule="evenodd" d="M11.3287 118.235C16.6103 118.235 20.8919 113.953 20.8919 108.671C20.8919 103.39 16.6103 99.1082 11.3287 99.1082C6.04705 99.1082 1.76543 103.39 1.76543 108.671C1.76543 113.953 6.04705 118.235 11.3287 118.235ZM11.3287 120C17.5853 120 22.6574 114.928 22.6574 108.671C22.6574 102.415 17.5853 97.3428 11.3287 97.3428C5.07203 97.3428 0 102.415 0 108.671C0 114.928 5.07203 120 11.3287 120Z" fill="#41197F" />
	<path d="M55.3847 75.9439C55.3847 82.2006 50.3126 87.2726 44.056 87.2726C37.7993 87.2726 32.7273 82.2006 32.7273 75.9439C32.7273 69.6873 37.7993 64.6152 44.056 64.6152C50.3126 64.6152 55.3847 69.6873 55.3847 75.9439Z" fill="#41197F" />
	<path d="M117.483 75.9439C117.483 82.2006 112.411 87.2726 106.154 87.2726C99.8973 87.2726 94.8253 82.2006 94.8253 75.9439C94.8253 69.6873 99.8973 64.6152 106.154 64.6152C112.411 64.6152 117.483 69.6873 117.483 75.9439Z" fill="#2FC18C" />
	<path fill-rule="evenodd" clip-rule="evenodd" d="M106.154 85.5072C111.436 85.5072 115.717 81.2256 115.717 75.9439C115.717 70.6623 111.436 66.3807 106.154 66.3807C100.872 66.3807 96.5907 70.6623 96.5907 75.9439C96.5907 81.2256 100.872 85.5072 106.154 85.5072ZM106.154 87.2726C112.411 87.2726 117.483 82.2006 117.483 75.9439C117.483 69.6873 112.411 64.6152 106.154 64.6152C99.8973 64.6152 94.8253 69.6873 94.8253 75.9439C94.8253 82.2006 99.8973 87.2726 106.154 87.2726Z" fill="#41197F" />
	<path d="M88.9512 44.056C88.9512 50.3126 83.5034 55.3847 76.7833 55.3847C70.0632 55.3847 64.6155 50.3126 64.6155 44.056C64.6155 37.7993 70.0632 32.7273 76.7833 32.7273C83.5034 32.7273 88.9512 37.7993 88.9512 44.056Z" fill="#41197F" />
	<path d="M26.8532 44.056C26.8532 50.3126 21.5933 55.3847 15.105 55.3847C8.61657 55.3847 3.35669 50.3126 3.35669 44.056C3.35669 37.7993 8.61657 32.7273 15.105 32.7273C21.5933 32.7273 26.8532 37.7993 26.8532 44.056Z" fill="#2FC18C" />
	<path fill-rule="evenodd" clip-rule="evenodd" d="M15.105 53.6192C20.5822 53.6192 25.0224 49.3376 25.0224 44.056C25.0224 38.7743 20.5822 34.4927 15.105 34.4927C9.6277 34.4927 5.18751 38.7743 5.18751 44.056C5.18751 49.3376 9.6277 53.6192 15.105 53.6192ZM15.105 55.3847C21.5933 55.3847 26.8532 50.3126 26.8532 44.056C26.8532 37.7993 21.5933 32.7273 15.105 32.7273C8.61657 32.7273 3.35669 37.7993 3.35669 44.056C3.35669 50.3126 8.61657 55.3847 15.105 55.3847Z" fill="#41197F" />
	<path d="M56.2238 11.7483C56.2238 18.2367 50.964 23.4965 44.4756 23.4965C37.9872 23.4965 32.7273 18.2367 32.7273 11.7483C32.7273 5.25988 37.9872 0 44.4756 0C50.964 0 56.2238 5.25988 56.2238 11.7483Z" fill="#41197F" />
</svg>
