<svg width="126" height="105" viewBox="0 0 126 105" fill="none" xmlns="http://www.w3.org/2000/svg">
	<rect x="9.68433" y="13" width="115.513" height="91.7727" rx="6" fill="#41197F" />
	<path d="M0.82605 6.60816C0.82605 3.41485 3.41473 0.826172 6.60804 0.826172H110.557C113.75 0.826172 116.339 3.41486 116.339 6.60816V86.8168C116.339 90.0101 113.75 92.5988 110.557 92.5988H6.60803C3.41473 92.5988 0.82605 90.0101 0.82605 86.8168V6.60816Z" fill="#2FC18C" />
	<path fill-rule="evenodd" clip-rule="evenodd" d="M0 6.60798C0 2.95849 2.9585 0 6.60799 0H110.557C114.207 0 117.165 2.9585 117.165 6.60799V86.8167C117.165 90.4662 114.207 93.4247 110.557 93.4247H6.60798C2.95849 93.4247 0 90.4661 0 86.8167V6.60798ZM6.60799 1.652C3.87087 1.652 1.652 3.87087 1.652 6.60798V86.8167C1.652 89.5538 3.87086 91.7727 6.60798 91.7727H110.557C113.294 91.7727 115.513 89.5538 115.513 86.8167V6.60799C115.513 3.87087 113.294 1.652 110.557 1.652H6.60799Z" fill="#41197F" />
	<path fill-rule="evenodd" clip-rule="evenodd" d="M116.339 24.449C116.339 24.9052 115.969 25.275 115.513 25.275H1.29768C0.841492 25.275 0.47168 24.9052 0.47168 24.449C0.47168 23.9929 0.841493 23.623 1.29768 23.623H115.513C115.969 23.623 116.339 23.9929 116.339 24.449Z" fill="#41197F" />
	<path d="M21 51.478C21 50.1094 22.1094 49 23.478 49H92.8126C94.1812 49 95.2906 50.1094 95.2906 51.478V66.5994C95.2906 67.968 94.1812 69.0774 92.8126 69.0774H23.478C22.1094 69.0774 21 67.968 21 66.5994V51.478Z" fill="#41197F" />
	<path d="M33.7791 13.0501C33.7791 15.692 31.7168 17.8336 29.1728 17.8336C26.6287 17.8336 24.5664 15.692 24.5664 13.0501C24.5664 10.4083 26.6287 8.2666 29.1728 8.2666C31.7168 8.2666 33.7791 10.4083 33.7791 13.0501Z" fill="#41197F" />
	<path fill-rule="evenodd" clip-rule="evenodd" d="M14.4678 16.1831C16.1973 16.1831 17.5994 14.7811 17.5994 13.0516C17.5994 11.3221 16.1973 9.92006 14.4678 9.92006C12.7384 9.92006 11.3363 11.3221 11.3363 13.0516C11.3363 14.7811 12.7384 16.1831 14.4678 16.1831ZM14.4678 17.8351C17.1097 17.8351 19.2514 15.6934 19.2514 13.0516C19.2514 10.4097 17.1097 8.26807 14.4678 8.26807C11.826 8.26807 9.68433 10.4097 9.68433 13.0516C9.68433 15.6934 11.826 17.8351 14.4678 17.8351Z" fill="#41197F" />
	<path d="M48.6611 13.0501C48.6611 15.692 46.5195 17.8336 43.8776 17.8336C41.2358 17.8336 39.0941 15.692 39.0941 13.0501C39.0941 10.4083 41.2358 8.2666 43.8776 8.2666C46.5195 8.2666 48.6611 10.4083 48.6611 13.0501Z" fill="#41197F" />
</svg>
