<svg width="122" height="114" viewBox="0 0 122 114" fill="none" xmlns="http://www.w3.org/2000/svg">
	<path d="M1 101V62.5L30.5 51L60.5 62.5V101L30.5 112.5L1 101Z" fill="#2FC18C" />
	<path d="M1 62.5L31 73L61 62.5" stroke="#41197F" stroke-width="2" />
	<path d="M31 73V112.5" stroke="#41197F" stroke-width="2" />
	<path d="M1 99.6248V63.8752C1 63.0469 1.51065 62.3043 2.28413 62.0078L31 51L60.5 62.5V101L31.7204 112.219C31.2568 112.4 30.7426 112.401 30.2781 112.223L2.28413 101.492C1.51065 101.196 1 100.453 1 99.6248Z" stroke="#41197F" stroke-width="2" />
	<path d="M61 101V62.5L90.5 51L120.5 62.5V101L90.5 112.5L61 101Z" fill="#2FC18C" />
	<path d="M61 62.5L91 73L119.5 62.5" stroke="#41197F" stroke-width="2" />
	<path d="M91 73V112.5" stroke="#41197F" stroke-width="2" />
	<path d="M61 101V62.5L91 51L119.226 62.0035C119.994 62.3029 120.5 63.0427 120.5 63.8669V99.6331C120.5 100.457 119.994 101.197 119.226 101.496L91.7204 112.219C91.2568 112.4 90.7426 112.401 90.2781 112.223L61 101Z" stroke="#41197F" stroke-width="2" />
	<path d="M31 51V12.5L60.5 1L90.5 12.5V51L60.5 62.5L31 51Z" fill="#2FC18C" />
	<path d="M31 12.5L61 23L91 12.5" stroke="#41197F" stroke-width="2" />
	<path d="M61 23V62.5" stroke="#41197F" stroke-width="2" />
	<path d="M31 51V13.8752C31 13.0469 31.5107 12.3043 32.2841 12.0078L60.2781 1.27674C60.7426 1.09867 61.2568 1.10012 61.7204 1.28082L89.2264 12.0035C89.9944 12.3029 90.5 13.0427 90.5 13.8669V51L61 62.5L31 51Z" stroke="#41197F" stroke-width="2" />
</svg>
