<svg width="150" height="135" viewBox="0 0 150 135" fill="none" xmlns="http://www.w3.org/2000/svg" alt="Real life">
	<path d="M104.509 8.35158L98.1449 9.57837C91.3141 11.6063 82.8863 14.1084 74.3332 20.792C63.5534 29.2157 52.5534 44.1487 42.4493 72.8277L22.7658 76.0378C22.3828 76.1003 22.0642 76.3663 21.9345 76.7321L14.7797 96.904C14.5372 97.5877 15.0352 98.3082 15.7605 98.323L33.9815 98.6953L33.6491 105.817L34.632 106.849C42.267 114.861 52.379 118.755 56.6931 119.756L58.0864 120.079L63.816 116.251L73.0421 131.975C73.4177 132.615 74.3168 132.684 74.785 132.108L88.236 115.56C88.4668 115.276 88.5354 114.893 88.4177 114.547L82.1572 96.1214C101.513 73.0064 109.094 56.0728 111.198 42.5363C112.975 31.0995 108.94 14.8147 108.94 14.8147L106.889 9.65473C106.511 8.70528 105.512 8.15818 104.509 8.35158Z" fill="#2FC18C" />
	<path fillRule="evenodd" clipRule="evenodd" d="M108.124 9.16371C107.511 7.62085 105.887 6.73182 104.257 7.04609L97.829 8.28524L97.7269 8.31557C90.8949 10.3438 82.2664 12.9055 73.5145 19.7444C62.5595 28.3051 51.5399 43.3075 41.4586 71.6422L22.5517 74.7256C21.69 74.8662 20.9732 75.4648 20.6813 76.2877L13.5265 96.4596C12.9809 97.998 14.1014 99.6192 15.7333 99.6525L32.5896 99.9969L32.2944 106.323L33.6695 107.766C41.5283 116.013 51.8974 120.009 56.3926 121.051L58.3466 121.504L63.3826 118.14L71.8953 132.648C72.7404 134.089 74.7635 134.242 75.8168 132.947L89.2677 116.399C89.7871 115.76 89.9415 114.899 89.6766 114.119L83.6564 96.4007C102.747 73.4737 110.375 56.4894 112.512 42.7406C113.431 36.8221 112.843 29.7331 112.051 24.1986C111.653 21.4159 111.199 18.9958 110.845 17.2703C110.667 16.4072 110.515 15.7168 110.406 15.2407C110.351 15.0026 110.308 14.8179 110.278 14.692C110.263 14.629 110.251 14.5806 110.243 14.5476L110.234 14.5096L110.231 14.4965C110.231 14.4962 110.23 14.495 108.94 14.8148L110.23 14.495L110.209 14.4075L108.124 9.16371ZM107.67 15.2197C107.676 15.2443 107.683 15.2741 107.691 15.309C107.719 15.4272 107.761 15.6036 107.813 15.8331C107.918 16.2922 108.067 16.9634 108.24 17.8057C108.586 19.491 109.03 21.8569 109.419 24.5751C110.201 30.0421 110.741 36.8139 109.884 42.3323C107.831 55.5418 100.408 72.2561 81.1378 95.2679L80.6576 95.8412L87.1114 114.835L73.9949 130.972L64.2494 114.362L57.8263 118.654L56.9935 118.461C52.8607 117.502 43.0057 113.709 35.5946 105.932L35.0038 105.312L35.3733 97.3939L16.156 97.0013L23.135 77.3249L43.4415 74.0132L43.7034 73.2696C53.759 44.7283 64.6429 30.052 75.152 21.8398C83.464 15.3446 91.6499 12.8938 98.4607 10.8717L104.761 9.65731C105.137 9.58479 105.511 9.78995 105.653 10.146L107.67 15.2197ZM16.0328 97.3486C16.0331 97.348 16.0333 97.3474 16.0335 97.3468L16.0328 97.3486ZM15.7891 96.9938C15.7886 96.9938 15.7881 96.9938 15.7876 96.9938L15.7891 96.9938ZM74.1889 131.302C74.1891 131.303 74.1888 131.302 74.1889 131.302V131.302Z" fill="#41197F" />
	<path d="M107.834 52.1625L66.8807 27.697C74.965 15.3578 96.4876 9.79137 106.238 8.55054C114.323 28.5485 110.671 45.9577 107.834 52.1625Z" fill="#41197F" />
	<path fillRule="evenodd" clipRule="evenodd" d="M32.6418 98.5532L41.6835 70.8965L44.2111 71.7228L35.1695 99.3795L32.6418 98.5532Z" fill="#41197F" />
	<path fillRule="evenodd" clipRule="evenodd" d="M62.1705 116.159L81.8496 94.3523L83.8239 96.1339L64.1447 117.941L62.1705 116.159Z" fill="#41197F" />
	<path d="M72.0887 71.1311L73.8794 78.5404C73.918 78.7219 74.0043 78.8873 74.1287 79.0183C74.2531 79.1493 74.4107 79.2407 74.584 79.2825C74.7137 79.3202 74.8499 79.3302 74.9847 79.312C75.1195 79.2938 75.2501 79.2477 75.3689 79.1764C75.4878 79.1052 75.5924 79.0102 75.6766 78.897C75.7609 78.7838 75.823 78.6548 75.8595 78.5175L79.3463 65.5953C79.4169 65.3647 79.4112 65.1179 79.3299 64.8952C79.2486 64.6726 79.0966 64.4873 78.8989 64.3698C78.7011 64.2524 78.4694 64.2096 78.2415 64.2486C78.0137 64.2876 77.8033 64.406 77.6448 64.5844L72.3716 70.0766C72.2435 70.2107 72.1519 70.3777 72.1064 70.5598C72.0523 70.7465 72.0462 70.9436 72.0887 71.1311Z" fill="white" />
	<path d="M67.8472 72.3501L69.661 79.7454C69.7068 79.9324 69.7075 80.1295 69.6633 80.3193C69.5805 80.591 69.4019 80.8217 69.1644 80.964C68.9268 81.1063 68.6484 81.1492 68.3865 81.084C68.2141 81.039 68.0571 80.9472 67.9312 80.8178L59.041 71.4844C58.9151 71.3575 58.8251 71.1967 58.7804 71.0188C58.7357 70.8409 58.7379 70.6525 58.7868 70.4733C58.8217 70.333 58.8829 70.2006 58.9668 70.0839C59.0506 69.9672 59.1555 69.8686 59.2752 69.7939C59.3949 69.7191 59.5271 69.6696 59.664 69.6484C59.8009 69.6272 59.9398 69.6346 60.0725 69.6703L67.1317 71.6052C67.3064 71.6475 67.4654 71.7393 67.5915 71.8706C67.7177 72.0019 67.8061 72.1678 67.8472 72.3501Z" fill="white" />
	<path d="M68.3201 67.1093L61.252 65.2127C61.0359 65.154 60.8462 65.0221 60.7122 64.8372C60.5781 64.6524 60.5072 64.425 60.5104 64.1902C60.5136 63.9554 60.5907 63.7262 60.7298 63.5382C60.869 63.3501 61.0623 63.2136 61.2801 63.1498L73.6558 59.5607C73.8364 59.5076 74.0256 59.5019 74.2064 59.544C74.4663 59.6205 74.6848 59.8007 74.8154 60.0463C74.946 60.292 74.9784 60.5837 74.9057 60.8593C74.8506 61.0398 74.7528 61.2038 74.6216 61.336L69.3131 66.8201C69.1851 66.956 69.0255 67.0544 68.8509 67.1053C68.6763 67.1562 68.493 67.1576 68.3201 67.1093Z" fill="white" />
</svg>
