<svg width="111" height="123" viewBox="0 0 111 123" fill="none" xmlns="http://www.w3.org/2000/svg">
	<path d="M13.9532 44.9085C15.5353 19.825 36.3789 0 61.953 0C88.5876 0 110.129 21.4952 110.129 48.0723C110.129 66.7264 99.4307 82.9069 83.8766 90.8467C83.103 91.2416 82.6 92.0285 82.6 92.8972V105.664C82.6 106.627 81.9864 107.483 81.0743 107.792L37.3932 122.607C35.9357 123.102 34.4238 122.018 34.4238 120.479V103.012H27.5415C20.733 103.012 17.0796 97.0236 16.0244 90.5C15.8262 89.2746 16.8604 88.2655 18.1011 88.2291C34.7127 87.7416 36.7635 82.7127 36.7635 78.0456H16.0244C14.7831 78.0456 13.7769 77.0393 13.7769 75.798V68.6747H3.45339C0.631642 68.6747 -1.02011 65.447 0.700465 63.1807L13.4999 46.1516C13.7701 45.7922 13.9249 45.3573 13.9532 44.9085Z" fill="#00D5E2" />
	<path fill-rule="evenodd" clip-rule="evenodd" d="M2.49057 64.5398C1.92184 65.2888 2.44288 66.4272 3.45339 66.4272H16.0244V75.798H39.011V78.0456C39.011 81.104 37.664 84.4449 33.9735 86.9933C30.4138 89.4514 26.1372 89.9794 17.7003 90.2425C18.7209 95.5803 22.013 100.764 27.5415 100.764H36.6713V120.479L80.3524 105.664V92.8972C80.3524 91.1464 81.363 89.6064 82.8548 88.8449C97.6896 81.2722 107.882 65.8454 107.882 48.0723C107.882 22.741 87.3509 2.24754 61.953 2.24754C37.5683 2.24754 17.7039 21.1475 16.1962 45.0499C16.1415 45.9174 15.8417 46.7767 15.2965 47.502L2.49057 64.5398ZM36.4405 80.2931C35.2155 84.4225 31.5224 87.5885 17.5 88C16.2593 88.0364 15.2251 89.0455 15.4233 90.2709C16.4785 96.7945 20.733 103.012 27.5415 103.012H34.4238V120.479C34.4238 122.018 35.9357 123.102 37.3932 122.607L81.0743 107.792C81.9864 107.483 82.6 106.627 82.6 105.664V92.8972C82.6 92.0285 83.103 91.2416 83.8766 90.8467C99.4307 82.9069 110.129 66.7264 110.129 48.0723C110.129 21.4952 88.5876 0 61.953 0C36.3789 0 15.5353 19.825 13.9532 44.9085C13.9249 45.3573 13.7701 45.7922 13.4999 46.1516L0.700465 63.1807C-1.02011 65.447 0.631642 68.6747 3.45339 68.6747H13.7769V75.798C13.7769 77.0393 14.7831 78.0456 16.0244 78.0456H36.7635C36.7635 78.773 36.6667 79.5306 36.4405 80.2931Z" fill="#002799" />
	<path d="M78.4453 28.9289L72.5911 29.7182C71.6873 28.5875 70.6902 27.6028 69.5468 26.7508L70.1631 20.9182C70.1901 20.3601 69.8579 19.8813 69.3258 19.7477L60.8131 17.6099C60.281 17.4763 59.762 17.7414 59.5754 18.2594L57.3629 23.6911C55.9526 23.9018 54.5554 24.2853 53.2778 24.8682L48.4911 21.4068C48.0523 21.1271 47.427 21.1395 47.0941 21.5643L40.9964 27.8279C40.6103 28.2393 40.5699 28.8505 40.9155 29.2762L44.5572 33.9187C44.2375 34.5162 43.9443 35.2334 43.7708 35.9241C43.5974 36.6149 43.4771 37.319 43.4101 38.0364L38.0602 40.421C37.5545 40.6329 37.3014 41.1906 37.4606 41.6825L39.8623 50.137C40.0082 50.682 40.5003 50.975 41.0723 50.9492L46.8733 50.1466C47.7771 51.2773 48.7742 52.262 49.9708 53.1273L49.3013 58.9466C49.2743 59.5046 49.6066 59.9835 50.1386 60.1171L58.6513 62.2548C59.1834 62.3884 59.7024 62.1234 59.9423 61.6188L62.1547 56.187C63.565 55.9763 64.9622 55.5928 66.2398 55.0099L70.9733 58.458C71.3988 58.7908 72.0374 58.7252 72.3703 58.3005L78.4814 51.9837C78.8675 51.5723 78.8945 51.0143 78.5489 50.5886L75.0136 45.9728C75.2934 45.3088 75.5201 44.6314 75.6936 43.9406C75.8804 43.1968 76.0006 42.4927 76.0543 41.8283L81.4574 39.4572C81.9631 39.2452 82.2163 38.6875 82.0703 38.1425L79.6553 29.7411C79.5094 29.1961 78.9641 28.8898 78.4453 28.9289ZM57.8241 47.5305C53.621 46.475 51.0698 42.2194 52.124 38.0218C53.1781 33.8242 57.4371 31.2787 61.6403 32.3342C65.8434 33.3897 68.3946 37.6454 67.3405 41.843C66.2864 46.0406 62.0273 48.586 57.8241 47.5305Z" fill="#002799" />
</svg>
